<svg width="55" height="15" viewBox="0 0 55 15" fill="none" xmlns="http://www.w3.org/2000/svg">
<path d="M0.560059 0.339999V14.62H10.0201V13.02H2.46006V0.339999H0.560059Z" fill="black"/>
<path d="M12.7733 7.48C12.7733 6.76 12.8667 6.05333 13.0533 5.36C13.24 4.65333 13.5333 4.02 13.9333 3.46C14.3333 2.9 14.8467 2.45333 15.4733 2.12C16.1 1.77333 16.8467 1.6 17.7133 1.6C18.58 1.6 19.3267 1.77333 19.9533 2.12C20.58 2.45333 21.0933 2.9 21.4933 3.46C21.8933 4.02 22.1867 4.65333 22.3733 5.36C22.56 6.05333 22.6533 6.76 22.6533 7.48C22.6533 8.2 22.56 8.91333 22.3733 9.62C22.1867 10.3133 21.8933 10.94 21.4933 11.5C21.0933 12.06 20.58 12.5133 19.9533 12.86C19.3267 13.1933 18.58 13.36 17.7133 13.36C16.8467 13.36 16.1 13.1933 15.4733 12.86C14.8467 12.5133 14.3333 12.06 13.9333 11.5C13.5333 10.94 13.24 10.3133 13.0533 9.62C12.8667 8.91333 12.7733 8.2 12.7733 7.48ZM10.8733 7.48C10.8733 8.45333 11.0133 9.39333 11.2933 10.3C11.5867 11.1933 12.02 11.9867 12.5933 12.68C13.1667 13.3733 13.88 13.9267 14.7333 14.34C15.5867 14.74 16.58 14.94 17.7133 14.94C18.8467 14.94 19.84 14.74 20.6933 14.34C21.5467 13.9267 22.26 13.3733 22.8333 12.68C23.4067 11.9867 23.8333 11.1933 24.1133 10.3C24.4067 9.39333 24.5533 8.45333 24.5533 7.48C24.5533 6.50667 24.4067 5.57333 24.1133 4.68C23.8333 3.77333 23.4067 2.97333 22.8333 2.28C22.26 1.58667 21.5467 1.03333 20.6933 0.619999C19.84 0.206666 18.8467 0 17.7133 0C16.58 0 15.5867 0.206666 14.7333 0.619999C13.88 1.03333 13.1667 1.58667 12.5933 2.28C12.02 2.97333 11.5867 3.77333 11.2933 4.68C11.0133 5.57333 10.8733 6.50667 10.8733 7.48Z" fill="black"/>
<path d="M37.5487 12.84L38.0487 14.62H39.2487V7.1H32.9887V8.7H37.5487C37.5753 9.35333 37.4887 9.96667 37.2887 10.54C37.0886 11.1 36.7887 11.5933 36.3887 12.02C36.002 12.4333 35.522 12.76 34.9487 13C34.3753 13.24 33.7153 13.36 32.9687 13.36C32.1687 13.36 31.462 13.2067 30.8487 12.9C30.2487 12.58 29.742 12.16 29.3287 11.64C28.9153 11.1067 28.602 10.5 28.3887 9.82C28.1753 9.12667 28.0687 8.40667 28.0687 7.66C28.0687 6.9 28.162 6.16 28.3487 5.44C28.5353 4.70667 28.822 4.06 29.2087 3.5C29.6087 2.92667 30.1153 2.46667 30.7287 2.12C31.3553 1.77333 32.102 1.6 32.9687 1.6C33.502 1.6 34.002 1.66667 34.4687 1.8C34.9487 1.92 35.3753 2.10667 35.7486 2.36C36.122 2.61333 36.4353 2.94 36.6887 3.34C36.942 3.72667 37.1153 4.19333 37.2087 4.74H39.1087C38.9753 3.9 38.722 3.18667 38.3487 2.6C37.9887 2 37.5353 1.50667 36.9887 1.12C36.4553 0.733333 35.842 0.453332 35.1487 0.28C34.4687 0.0933331 33.742 0 32.9687 0C31.8353 0 30.842 0.213333 29.9887 0.639998C29.1487 1.05333 28.442 1.61333 27.8687 2.32C27.3087 3.02667 26.882 3.85333 26.5887 4.8C26.3087 5.73333 26.1687 6.72 26.1687 7.76C26.1687 8.69333 26.322 9.59333 26.6287 10.46C26.9353 11.3267 27.382 12.0933 27.9687 12.76C28.5553 13.4267 29.2687 13.96 30.1087 14.36C30.9487 14.7467 31.902 14.94 32.9687 14.94C33.8087 14.94 34.642 14.78 35.4687 14.46C36.2953 14.1267 36.9887 13.5867 37.5487 12.84Z" fill="black"/>
<path d="M43.1444 7.48C43.1444 6.76 43.2378 6.05333 43.4244 5.36C43.6111 4.65333 43.9044 4.02 44.3044 3.46C44.7044 2.9 45.2178 2.45333 45.8444 2.12C46.4711 1.77333 47.2178 1.6 48.0844 1.6C48.9511 1.6 49.6978 1.77333 50.3244 2.12C50.9511 2.45333 51.4644 2.9 51.8644 3.46C52.2644 4.02 52.5578 4.65333 52.7444 5.36C52.9311 6.05333 53.0244 6.76 53.0244 7.48C53.0244 8.2 52.9311 8.91333 52.7444 9.62C52.5578 10.3133 52.2644 10.94 51.8644 11.5C51.4644 12.06 50.9511 12.5133 50.3244 12.86C49.6978 13.1933 48.9511 13.36 48.0844 13.36C47.2178 13.36 46.4711 13.1933 45.8444 12.86C45.2178 12.5133 44.7044 12.06 44.3044 11.5C43.9044 10.94 43.6111 10.3133 43.4244 9.62C43.2378 8.91333 43.1444 8.2 43.1444 7.48ZM41.2444 7.48C41.2444 8.45333 41.3844 9.39333 41.6644 10.3C41.9578 11.1933 42.3911 11.9867 42.9644 12.68C43.5378 13.3733 44.2511 13.9267 45.1044 14.34C45.9578 14.74 46.9511 14.94 48.0844 14.94C49.2178 14.94 50.2111 14.74 51.0644 14.34C51.9178 13.9267 52.6311 13.3733 53.2044 12.68C53.7778 11.9867 54.2044 11.1933 54.4844 10.3C54.7778 9.39333 54.9244 8.45333 54.9244 7.48C54.9244 6.50667 54.7778 5.57333 54.4844 4.68C54.2044 3.77333 53.7778 2.97333 53.2044 2.28C52.6311 1.58667 51.9178 1.03333 51.0644 0.619999C50.2111 0.206666 49.2178 0 48.0844 0C46.9511 0 45.9578 0.206666 45.1044 0.619999C44.2511 1.03333 43.5378 1.58667 42.9644 2.28C42.3911 2.97333 41.9578 3.77333 41.6644 4.68C41.3844 5.57333 41.2444 6.50667 41.2444 7.48Z" fill="black"/>
</svg>
